<svg width="269" height="52" viewBox="0 0 269 52" fill="none" xmlns="http://www.w3.org/2000/svg">
<path d="M31.21 0L37.6 11.02H53.81L61.87 25.19H75.39L60.76 0H31.21Z" fill="#160B36"/>
<path d="M0 0L6.39 11.02H22.6L30.66 25.19H44.18L29.55 0H0Z" fill="#B01E23"/>
<path d="M31.21 26.49L37.6 37.51H53.81L61.87 51.68H75.39L60.76 26.49H31.21Z" fill="#160B36"/>
<path d="M0 26.49L6.39 37.51H22.6L30.66 51.68H44.18L29.55 26.49H0Z" fill="#B01E23"/>
<path d="M86.2 14.74V2.83998H90.06C91.0129 2.79443 91.9681 2.84806 92.91 2.99998C93.6006 3.18099 94.2079 3.59411 94.63 4.16998C95.1135 4.84031 95.3566 5.65425 95.32 6.47998C95.3365 7.11976 95.1994 7.75419 94.92 8.32998C94.6801 8.79109 94.3381 9.19128 93.92 9.49998C93.5436 9.76602 93.119 9.95623 92.67 10.06C91.8473 10.1958 91.0135 10.2527 90.18 10.23H88.61V14.72L86.2 14.74ZM88.61 4.85998V8.22998H89.92C90.5587 8.26483 91.1991 8.20416 91.82 8.04998C92.1222 7.93238 92.3806 7.72409 92.5596 7.45371C92.7387 7.18333 92.8296 6.86413 92.82 6.53998C92.8328 6.14513 92.6972 5.75981 92.44 5.45998C92.178 5.17464 91.824 4.99056 91.44 4.93998C90.8697 4.86706 90.2945 4.84031 89.72 4.85998H88.61Z" fill="#B01E23"/>
<path d="M95.8601 2.84001H98.5501L101.32 9.00001L103.69 2.82001H106.2L102.2 11.82C101.868 12.6297 101.417 13.3848 100.86 14.06C100.642 14.3103 100.371 14.5092 100.066 14.6423C99.7621 14.7754 99.4321 14.8395 99.1001 14.83C98.5434 14.8422 97.9869 14.7953 97.4401 14.69V13C97.7801 13 98.0901 13 98.3601 13C98.7836 13.0353 99.2066 12.926 99.5601 12.69C99.8959 12.3178 100.133 11.8675 100.25 11.38L95.8601 2.84001Z" fill="#B01E23"/>
<path d="M115 10.37L117.33 11.1C117.075 12.2375 116.449 13.2577 115.55 14C114.474 14.7153 113.185 15.0382 111.899 14.9144C110.613 14.7905 109.409 14.2275 108.49 13.32C107.434 12.0984 106.899 10.5115 107 8.89999C106.897 7.22051 107.445 5.56583 108.53 4.27999C109.043 3.73936 109.664 3.31365 110.354 3.03095C111.043 2.74826 111.785 2.615 112.53 2.63999C113.836 2.5893 115.111 3.05238 116.08 3.92999C116.677 4.53638 117.099 5.29319 117.3 6.11999L114.92 6.68999C114.803 6.11679 114.492 5.6013 114.04 5.22999C113.577 4.86472 113 4.67362 112.41 4.68999C112.003 4.67821 111.599 4.75739 111.227 4.92175C110.855 5.08611 110.525 5.3315 110.26 5.63999C109.638 6.54088 109.349 7.62938 109.44 8.71999C109.338 9.85093 109.623 10.983 110.25 11.93C110.501 12.2473 110.822 12.5025 111.188 12.6759C111.554 12.8493 111.955 12.9363 112.36 12.93C112.967 12.9438 113.557 12.7257 114.01 12.32C114.54 11.7924 114.887 11.1091 115 10.37Z" fill="#B01E23"/>
<path d="M127 10.37L129.33 11.1C129.075 12.2375 128.449 13.2577 127.55 14C126.474 14.7153 125.185 15.0382 123.899 14.9144C122.613 14.7905 121.409 14.2275 120.49 13.32C119.438 12.0962 118.903 10.511 119 8.89999C118.897 7.22051 119.445 5.56583 120.53 4.27999C121.043 3.73936 121.664 3.31365 122.354 3.03095C123.043 2.74826 123.785 2.615 124.53 2.63999C125.836 2.5893 127.111 3.05238 128.08 3.92999C128.677 4.53638 129.099 5.29319 129.3 6.11999L126.92 6.68999C126.808 6.11231 126.494 5.59344 126.034 5.22679C125.574 4.86014 124.998 4.66978 124.41 4.68999C124.005 4.67828 123.602 4.75755 123.232 4.92195C122.862 5.08636 122.533 5.33173 122.27 5.63999C121.64 6.53742 121.346 7.62773 121.44 8.71999C121.338 9.85093 121.623 10.983 122.25 11.93C122.502 12.2467 122.823 12.5016 123.189 12.6749C123.555 12.8483 123.955 12.9355 124.36 12.93C124.967 12.9438 125.557 12.7257 126.01 12.32C126.54 11.7924 126.887 11.1091 127 10.37Z" fill="#B01E23"/>
<path d="M131.45 2.83999H133.85V7.90999C134.252 7.90668 134.64 7.75743 134.94 7.48999C135.306 6.91073 135.602 6.28963 135.82 5.63999C136.084 4.71472 136.604 3.88281 137.32 3.23999C138.068 2.87391 138.899 2.71178 139.73 2.76999H140.08V4.53999H139.74C139.371 4.5167 139.001 4.57827 138.66 4.71999C138.427 4.85084 138.237 5.04503 138.11 5.27999C137.867 5.77558 137.656 6.28669 137.48 6.80999C137.361 7.15967 137.203 7.49505 137.01 7.80999C136.777 8.14248 136.464 8.41077 136.1 8.58999C136.634 8.73873 137.102 9.06277 137.43 9.50999C137.873 10.1404 138.258 10.8098 138.58 11.51L140.2 14.77H137.38L136 11.66C135.949 11.5791 135.902 11.4956 135.86 11.41C135.86 11.41 135.73 11.18 135.56 10.85C135.379 10.4411 135.121 10.071 134.8 9.75999C134.527 9.59292 134.21 9.51271 133.89 9.52999V14.74H131.49L131.45 2.83999Z" fill="#B01E23"/>
<path d="M141.07 8.86C141.047 7.83388 141.23 6.81357 141.61 5.86C141.881 5.25539 142.257 4.70353 142.72 4.23C143.155 3.77159 143.679 3.40739 144.26 3.16C145.073 2.83418 145.944 2.67438 146.82 2.69C147.588 2.65112 148.356 2.7714 149.075 3.04329C149.794 3.31519 150.45 3.73283 151 4.27C151.549 4.88561 151.971 5.60351 152.242 6.38257C152.513 7.16162 152.628 7.98652 152.58 8.81C152.627 9.62879 152.512 10.4488 152.24 11.2228C151.969 11.9968 151.548 12.7095 151 13.32C149.847 14.3621 148.349 14.9391 146.795 14.9391C145.241 14.9391 143.743 14.3621 142.59 13.32C142.056 12.713 141.647 12.0066 141.386 11.2413C141.125 10.476 141.018 9.66683 141.07 8.86ZM143.54 8.78C143.459 9.88476 143.795 10.9797 144.48 11.85C144.776 12.182 145.142 12.4439 145.552 12.6169C145.962 12.7899 146.406 12.8695 146.85 12.85C147.291 12.8665 147.73 12.7854 148.137 12.6126C148.543 12.4397 148.906 12.1793 149.2 11.85C149.881 10.9668 150.209 9.86173 150.12 8.75C150.195 7.67533 149.879 6.60969 149.23 5.75C148.933 5.41667 148.565 5.15391 148.153 4.9809C147.741 4.8079 147.296 4.72901 146.85 4.75C146.401 4.73093 145.954 4.8106 145.539 4.98338C145.124 5.15617 144.752 5.41787 144.45 5.75C143.792 6.6174 143.468 7.69335 143.54 8.78Z" fill="#B01E23"/>
<path d="M154.48 14.74V2.84003H163.3V4.84003H156.88V7.49003H162.88V9.49003H156.88V12.73H163.53V14.73L154.48 14.74Z" fill="#B01E23"/>
<path d="M86.24 18.7H95.7V30.59H93.3V20.69H88.64V30.59H86.24V18.7Z" fill="#B01E23"/>
<path d="M98.1499 30.59V18.7H107V20.7H100.58V23.34H106.58V25.34H100.58V28.58H107.23V30.58L98.1499 30.59Z" fill="#B01E23"/>
<path d="M109.23 30.59V18.7H113.09C114.043 18.6594 114.998 18.7164 115.94 18.87C116.625 19.0406 117.231 19.4391 117.66 20C118.144 20.6741 118.387 21.4912 118.35 22.32C118.367 22.9566 118.23 23.588 117.95 24.16C117.713 24.6229 117.37 25.0237 116.95 25.33C116.574 25.596 116.149 25.7862 115.7 25.89C114.877 26.0258 114.043 26.0827 113.21 26.06H111.65V30.55L109.23 30.59ZM111.64 20.71V24.08H113C113.639 24.1148 114.279 24.0542 114.9 23.9C115.202 23.7824 115.461 23.5741 115.64 23.3037C115.819 23.0333 115.91 22.7141 115.9 22.39C115.912 21.9983 115.777 21.6163 115.52 21.32C115.258 21.0323 114.905 20.8449 114.52 20.79C113.95 20.7171 113.375 20.6903 112.8 20.71H111.64Z" fill="#B01E23"/>
<path d="M120.32 30.59V18.7H129.14V20.7H122.72V23.34H128.72V25.34H122.72V28.58H129.37V30.58L120.32 30.59Z" fill="#B01E23"/>
<path d="M139 26.22L141.33 26.96C141.076 28.095 140.449 29.1124 139.55 29.85C138.476 30.564 137.19 30.8871 135.906 30.7652C134.623 30.6432 133.42 30.0835 132.5 29.18C131.441 27.9558 130.902 26.3659 131 24.75C130.895 23.0734 131.443 21.4212 132.53 20.14C133.042 19.5976 133.663 19.17 134.353 18.8856C135.042 18.6011 135.784 18.4663 136.53 18.49C137.834 18.4344 139.107 18.8983 140.07 19.78C140.682 20.3898 141.112 21.1588 141.31 22L138.93 22.57C138.814 21.9962 138.503 21.4802 138.05 21.11C137.589 20.7483 137.016 20.5606 136.43 20.58C136.023 20.5646 135.618 20.6421 135.245 20.8067C134.873 20.9713 134.543 21.2187 134.28 21.53C133.652 22.4242 133.362 23.5119 133.46 24.6C133.358 25.731 133.643 26.863 134.27 27.81C134.521 28.1279 134.842 28.3836 135.208 28.557C135.574 28.7305 135.975 28.8171 136.38 28.81C136.984 28.8233 137.571 28.6051 138.02 28.2C138.552 27.6631 138.896 26.9685 139 26.22Z" fill="#B01E23"/>
<path d="M145.67 30.59V20.71H142.14V18.71H151.59V20.71H148.07V30.59H145.67Z" fill="#B01E23"/>
<path d="M153.14 30.59V18.7H157C157.953 18.6594 158.908 18.7164 159.85 18.87C160.535 19.0406 161.141 19.4391 161.57 20C162.053 20.6741 162.296 21.4912 162.26 22.32C162.277 22.9566 162.14 23.588 161.86 24.16C161.623 24.6229 161.28 25.0237 160.86 25.33C160.484 25.596 160.059 25.7862 159.61 25.89C158.787 26.0258 157.953 26.0827 157.12 26.06H155.55V30.55L153.14 30.59ZM155.54 20.71V24.08H156.86C157.499 24.1148 158.139 24.0542 158.76 23.9C159.062 23.7824 159.321 23.5741 159.5 23.3037C159.679 23.0333 159.77 22.7141 159.76 22.39C159.772 21.9983 159.636 21.6163 159.38 21.32C159.118 21.0323 158.765 20.8449 158.38 20.79C157.81 20.7171 157.234 20.6903 156.66 20.71H155.54Z" fill="#B01E23"/>
<path d="M173.5 30.59H170.88L169.88 27.89H165.13L164.13 30.59H161.58L166.21 18.7H168.75L173.5 30.59ZM169.07 25.89L167.43 21.47L165.83 25.89H169.07Z" fill="#B01E23"/>
<path d="M173.56 30.59L177.62 24.38L173.94 18.7H176.75L179.14 22.52L181.47 18.7H184.26L180.55 24.47L184.62 30.59H181.72L179.09 26.48L176.44 30.59H173.56Z" fill="#B01E23"/>
<path d="M184.94 24.72C184.916 23.6938 185.099 22.6733 185.48 21.72C185.742 21.084 186.119 20.5011 186.59 20C187.034 19.5699 187.557 19.2302 188.13 19C188.943 18.6742 189.814 18.5144 190.69 18.53C191.466 18.4959 192.241 18.6231 192.966 18.9037C193.691 19.1843 194.349 19.612 194.9 20.16C195.449 20.7756 195.871 21.4935 196.142 22.2726C196.414 23.0516 196.528 23.8765 196.48 24.7C196.572 26.3516 196.008 27.9726 194.91 29.21C194.363 29.7572 193.708 30.1839 192.986 30.4629C192.265 30.7419 191.493 30.8669 190.72 30.83C189.944 30.8669 189.168 30.743 188.442 30.4659C187.716 30.1888 187.055 29.7647 186.5 29.22C185.955 28.6107 185.536 27.8991 185.268 27.1266C185.001 26.3541 184.889 25.536 184.94 24.72ZM187.41 24.64C187.331 25.7415 187.666 26.8328 188.35 27.7C188.645 28.0307 189.01 28.2918 189.418 28.4647C189.826 28.6376 190.267 28.718 190.71 28.7C191.153 28.718 191.594 28.6376 192.002 28.4647C192.41 28.2918 192.775 28.0307 193.07 27.7C193.751 26.8165 194.082 25.7126 194 24.6C194.083 23.509 193.767 22.4251 193.11 21.55C192.812 21.2153 192.442 20.9518 192.029 20.7787C191.615 20.6057 191.168 20.5275 190.72 20.55C190.273 20.5338 189.828 20.6148 189.415 20.7874C189.003 20.9601 188.632 21.2203 188.33 21.55C187.657 22.4332 187.329 23.5322 187.41 24.64Z" fill="#B01E23"/>
<path d="M198.36 18.7H203.11C203.815 18.6824 204.521 18.7192 205.22 18.81C205.663 18.8853 206.085 19.0522 206.46 19.3C206.837 19.5579 207.149 19.9003 207.37 20.3C207.62 20.72 207.748 21.2013 207.74 21.69C207.74 22.2352 207.582 22.7688 207.286 23.2265C206.99 23.6842 206.567 24.0465 206.07 24.27C206.729 24.4389 207.316 24.818 207.74 25.35C208.129 25.8646 208.333 26.4951 208.32 27.14C208.32 27.6882 208.194 28.229 207.95 28.72C207.72 29.2039 207.377 29.6256 206.95 29.95C206.468 30.2661 205.915 30.4585 205.34 30.51C204.93 30.51 203.97 30.58 202.44 30.59H198.44L198.36 18.7ZM200.76 20.7V23.45H202.34C203.27 23.45 203.85 23.45 204.08 23.45C204.452 23.4239 204.805 23.2723 205.08 23.02C205.199 22.8972 205.291 22.7513 205.351 22.5913C205.412 22.4313 205.438 22.2607 205.43 22.09C205.445 21.7632 205.338 21.4425 205.13 21.19C204.891 20.9413 204.565 20.7944 204.22 20.78C203.99 20.78 203.3 20.78 202.17 20.78L200.76 20.7ZM200.76 25.43V28.61H203C203.551 28.6275 204.103 28.6007 204.65 28.53C205.008 28.4778 205.331 28.2894 205.553 28.0043C205.774 27.7191 205.877 27.3593 205.84 27C205.849 26.6772 205.758 26.3594 205.58 26.09C205.398 25.8309 205.134 25.6407 204.83 25.55C204.131 25.3973 203.415 25.3401 202.7 25.38L200.76 25.43Z" fill="#B01E23"/>
<path d="M209.45 24.72C209.424 23.6927 209.611 22.6712 210 21.72C210.259 21.0843 210.631 20.5014 211.1 20C211.544 19.5699 212.067 19.2302 212.64 19C213.457 18.6742 214.331 18.5144 215.21 18.53C215.985 18.4961 216.758 18.6234 217.481 18.904C218.204 19.1846 218.861 19.6123 219.41 20.16C220.513 21.3918 221.084 23.0091 221 24.66C221.048 25.4781 220.935 26.2977 220.665 27.0717C220.396 27.8457 219.976 28.5588 219.43 29.17C218.885 29.7169 218.232 30.1436 217.512 30.4226C216.792 30.7016 216.021 30.8268 215.25 30.79C214.469 30.8324 213.687 30.711 212.955 30.4338C212.223 30.1565 211.557 29.7295 211 29.18C210.46 28.576 210.044 27.8708 209.778 27.1052C209.512 26.3397 209.401 25.529 209.45 24.72ZM211.93 24.64C211.853 25.7397 212.184 26.8292 212.86 27.7C213.162 28.0263 213.527 28.2867 213.934 28.4648C214.341 28.6429 214.781 28.7348 215.225 28.7348C215.669 28.7348 216.109 28.6429 216.516 28.4648C216.923 28.2867 217.289 28.0263 217.59 27.7C218.266 26.8103 218.593 25.7042 218.51 24.59C218.595 23.4973 218.275 22.4116 217.61 21.54C217.3 21.2216 216.929 20.9686 216.519 20.7958C216.11 20.623 215.67 20.534 215.225 20.534C214.781 20.534 214.34 20.623 213.931 20.7958C213.521 20.9686 213.15 21.2216 212.84 21.54C212.163 22.4251 211.839 23.5297 211.93 24.64Z" fill="#B01E23"/>
<path d="M222.67 18.7H225.07V21.54C225.053 22.1517 225.087 22.7638 225.17 23.37C225.215 23.5338 225.293 23.687 225.397 23.8209C225.502 23.9547 225.632 24.0666 225.78 24.15C226.232 24.3991 226.745 24.5136 227.26 24.48C227.723 24.4897 228.184 24.4324 228.63 24.31C228.99 24.208 229.329 24.042 229.63 23.82V18.7H232.03V30.59H229.63V25.8C229.167 26.0092 228.685 26.1733 228.19 26.29C227.736 26.4049 227.269 26.462 226.8 26.46C225.736 26.5066 224.685 26.2124 223.8 25.62C223.374 25.2733 223.04 24.8255 222.831 24.3173C222.621 23.8091 222.542 23.2566 222.6 22.71L222.67 18.7Z" fill="#B01E23"/>
<path d="M234.55 30.59V18.7H237V23.38H241.71V18.7H244.11V30.59H241.71V25.39H237V30.59H234.55Z" fill="#B01E23"/>
<path d="M246.06 24.72C246.036 23.6938 246.219 22.6733 246.6 21.72C246.862 21.084 247.239 20.5011 247.71 20C248.154 19.5699 248.677 19.2302 249.25 19C250.064 18.6742 250.934 18.5144 251.81 18.53C252.58 18.4935 253.35 18.6157 254.07 18.8893C254.791 19.1628 255.448 19.5817 256 20.12C256.549 20.7356 256.971 21.4535 257.242 22.2326C257.514 23.0116 257.628 23.8365 257.58 24.66C257.627 25.4788 257.512 26.2988 257.24 27.0728C256.969 27.8468 256.548 28.5595 256 29.17C255.453 29.7171 254.798 30.1439 254.076 30.4229C253.355 30.7019 252.583 30.8269 251.81 30.79C251.034 30.8263 250.258 30.7021 249.532 30.425C248.806 30.148 248.145 29.7242 247.59 29.18C246.51 27.9545 245.959 26.3506 246.06 24.72ZM248.53 24.64C248.451 25.7415 248.786 26.8328 249.47 27.7C249.766 28.032 250.133 28.2939 250.542 28.4669C250.952 28.6399 251.396 28.7195 251.84 28.7C252.281 28.7165 252.721 28.6354 253.127 28.4626C253.533 28.2897 253.896 28.0293 254.19 27.7C254.87 26.8124 255.198 25.7047 255.11 24.59C255.198 23.4986 254.881 22.4129 254.22 21.54C253.923 21.2067 253.555 20.9439 253.143 20.7709C252.731 20.5979 252.286 20.519 251.84 20.54C251.391 20.523 250.945 20.6036 250.53 20.7762C250.116 20.9489 249.744 21.2095 249.44 21.54C248.768 22.4272 248.444 23.5301 248.53 24.64Z" fill="#B01E23"/>
<path d="M259.47 30.59V18.7H268.29V20.7H261.87V23.34H267.87V25.34H261.87V28.58H268.52V30.58L259.47 30.59Z" fill="#B01E23"/>
<path d="M85.72 40.57C85.6955 39.5438 85.8792 38.5233 86.26 37.57C86.5284 36.964 86.9045 36.4118 87.37 35.94C87.8046 35.4816 88.3288 35.1174 88.91 34.87C89.7213 34.536 90.5927 34.3726 91.47 34.39C92.245 34.3515 93.0196 34.4747 93.7444 34.7519C94.4693 35.0291 95.1284 35.4541 95.68 36C96.2292 36.6135 96.6516 37.3296 96.9227 38.1071C97.1939 38.8846 97.3085 39.708 97.26 40.53C97.3435 42.1683 96.7796 43.7738 95.69 45C94.5394 46.0463 93.0401 46.6261 91.485 46.6261C89.9298 46.6261 88.4305 46.0463 87.28 45C86.1963 43.7867 85.6356 42.1946 85.72 40.57ZM88.19 40.49C88.111 41.5899 88.4423 42.6801 89.12 43.55C89.4161 43.882 89.7825 44.144 90.1924 44.3169C90.6023 44.4899 91.0455 44.5695 91.49 44.55C91.9328 44.568 92.3741 44.4877 92.7821 44.3147C93.1902 44.1418 93.5549 43.8807 93.85 43.55C94.5284 42.6655 94.8561 41.5615 94.77 40.45C94.8528 39.356 94.5366 38.269 93.88 37.39C93.5696 37.0701 93.1981 36.8157 92.7875 36.642C92.377 36.4683 91.9357 36.3788 91.49 36.3788C91.0442 36.3788 90.603 36.4683 90.1924 36.642C89.7819 36.8157 89.4104 37.0701 89.1 37.39C88.419 38.2729 88.0942 39.3792 88.19 40.49Z" fill="#B01E23"/>
<path d="M99.1799 34.55H108.07V36.55H101.58V39.3H104.79C105.54 39.2779 106.289 39.3896 107 39.63C107.614 39.8623 108.139 40.2822 108.5 40.83C108.905 41.4408 109.12 42.1573 109.12 42.89C109.12 43.6227 108.905 44.3392 108.5 44.95C108.144 45.47 107.648 45.879 107.07 46.13C106.335 46.3689 105.562 46.4739 104.79 46.44H99.1799V34.55ZM101.58 44.45H103.92C104.446 44.4658 104.972 44.429 105.49 44.34C105.802 44.2665 106.08 44.0905 106.28 43.84C106.52 43.5644 106.643 43.2051 106.62 42.84C106.637 42.6056 106.592 42.3707 106.488 42.1598C106.384 41.9488 106.226 41.7694 106.03 41.64C105.408 41.3394 104.718 41.2083 104.03 41.26H101.59L101.58 44.45Z" fill="#B01E23"/>
<path d="M111.12 34.55H113.52V44.45H117V34.55H119.39V44.45H122.95V34.55H125.34V44.45H126.41V49H124.41V46.4H111.12V34.55Z" fill="#B01E23"/>
<path d="M128 46.44V34.55H136.82V36.55H130.4V39.2H136.4V41.2H130.4V44.44H137.05V46.44H128Z" fill="#B01E23"/>
<path d="M146.71 42.07L149.04 42.81C148.784 43.9444 148.158 44.9614 147.26 45.7C146.183 46.4165 144.892 46.7382 143.605 46.6106C142.318 46.483 141.115 45.914 140.2 45C139.13 43.7804 138.581 42.19 138.67 40.57C138.578 38.9056 139.13 37.2695 140.21 36C140.72 35.4555 141.341 35.0266 142.031 34.742C142.721 34.4574 143.464 34.3237 144.21 34.35C145.516 34.2993 146.791 34.7624 147.76 35.64C148.356 36.2498 148.774 37.0103 148.97 37.84L146.6 38.4C146.492 37.8205 146.179 37.2992 145.718 36.9318C145.257 36.5645 144.679 36.3756 144.09 36.4C143.679 36.3921 143.272 36.4781 142.899 36.6514C142.527 36.8247 142.199 37.0807 141.94 37.4C141.314 38.2949 141.023 39.3821 141.12 40.47C141.015 41.6043 141.301 42.7403 141.93 43.69C142.182 44.0068 142.503 44.2616 142.869 44.4349C143.235 44.6083 143.635 44.6955 144.04 44.69C144.646 44.7026 145.234 44.4887 145.69 44.09C146.24 43.5451 146.598 42.8361 146.71 42.07Z" fill="#B01E23"/>
<path d="M153.36 46.44V36.56H149.83V34.56H159.29V36.56H155.76V46.44H153.36Z" fill="#B01E23"/>
<path d="M160.84 34.55H165.6C166.305 34.5382 167.01 34.575 167.71 34.66C168.154 34.736 168.577 34.9065 168.95 35.16C169.323 35.4223 169.634 35.7638 169.86 36.16C170.117 36.609 170.245 37.1205 170.229 37.6377C170.213 38.1549 170.054 38.6576 169.77 39.09C169.469 39.5349 169.045 39.8825 168.55 40.09C169.213 40.2562 169.804 40.6357 170.23 41.17C170.616 41.6898 170.82 42.3225 170.81 42.97C170.807 43.5157 170.677 44.0532 170.43 44.54C170.206 45.0278 169.862 45.451 169.43 45.77C168.948 46.0876 168.395 46.2801 167.82 46.33C167.42 46.33 166.46 46.4 164.92 46.41H160.92L160.84 34.55ZM163.25 36.55V39.3H164.82C165.76 39.3 166.34 39.3 166.56 39.3C166.935 39.2832 167.29 39.1303 167.56 38.87C167.682 38.7487 167.777 38.6033 167.839 38.4431C167.901 38.283 167.928 38.1116 167.92 37.94C167.935 37.6146 167.824 37.2959 167.61 37.05C167.373 36.8024 167.052 36.6525 166.71 36.63C166.47 36.63 165.79 36.63 164.65 36.63L163.25 36.55ZM163.25 41.28V44.46H165.47C166.021 44.4784 166.573 44.455 167.12 44.39C167.454 44.3284 167.76 44.16 167.99 43.91C168.223 43.6298 168.344 43.2738 168.33 42.91C168.339 42.5871 168.248 42.2694 168.07 42C167.884 41.7451 167.621 41.556 167.32 41.46C166.617 41.3122 165.898 41.255 165.18 41.29L163.25 41.28Z" fill="#B01E23"/>
<path d="M171.94 40.57C171.915 39.5438 172.099 38.5233 172.48 37.57C172.748 36.964 173.124 36.4117 173.59 35.94C174.025 35.4816 174.549 35.1174 175.13 34.87C175.941 34.5359 176.813 34.3725 177.69 34.39C178.465 34.3521 179.239 34.4756 179.964 34.7527C180.689 35.0299 181.348 35.4546 181.9 36C182.449 36.6135 182.872 37.3296 183.143 38.1071C183.414 38.8846 183.528 39.708 183.48 40.53C183.564 42.1683 183 43.7738 181.91 45C180.759 46.0463 179.26 46.6261 177.705 46.6261C176.15 46.6261 174.65 46.0463 173.5 45C172.416 43.7867 171.856 42.1946 171.94 40.57ZM174.41 40.49C174.331 41.5899 174.662 42.68 175.34 43.55C175.636 43.882 176.002 44.144 176.412 44.3169C176.822 44.4899 177.265 44.5695 177.71 44.55C178.153 44.568 178.594 44.4876 179.002 44.3147C179.41 44.1418 179.775 43.8807 180.07 43.55C180.748 42.6655 181.076 41.5614 180.99 40.45C181.073 39.356 180.757 38.269 180.1 37.39C179.79 37.0701 179.418 36.8157 179.007 36.642C178.597 36.4683 178.156 36.3788 177.71 36.3788C177.264 36.3788 176.823 36.4683 176.412 36.642C176.002 36.8157 175.63 37.0701 175.32 37.39C174.639 38.2728 174.314 39.3792 174.41 40.49Z" fill="#B01E23"/>
</svg>
