<svg xmlns="http://www.w3.org/2000/svg" viewBox="0 0 680.06 139.5"><defs><style>.cls-1,.cls-3{fill:#b01e23;}.cls-1,.cls-2{fill-rule:evenodd;}.cls-2{fill:#312258;}</style></defs><g id="Layer_2" data-name="Layer 2"><g id="Layer_2-2" data-name="Layer 2"><polygon class="cls-1" points="84.25 0 164 0 203.5 68 167 68 145.25 29.75 101.5 29.75 84.25 0"/><polygon class="cls-2" points="0 0 79.75 0 119.25 68 82.75 68 61 29.75 17.25 29.75 0 0"/><polygon class="cls-1" points="84.25 71.5 164 71.5 203.5 139.5 167 139.5 145.25 101.25 101.5 101.25 84.25 71.5"/><polygon class="cls-2" points="0 71.5 79.75 71.5 119.25 139.5 82.75 139.5 61 101.25 17.25 101.25 0 71.5"/><path class="cls-3" d="M227.64,41.3V11.12h12.88a8.75,8.75,0,0,1,3.95.89,11,11,0,0,1,3.13,2.34,10.57,10.57,0,0,1,2.06,3.27,10.15,10.15,0,0,1,.72,3.74,10.58,10.58,0,0,1-1.21,4.91,10.2,10.2,0,0,1-3.36,3.83,8.68,8.68,0,0,1-5,1.46h-6.17V41.3Zm7-15.86h5.7a2.49,2.49,0,0,0,1.46-.44,3.23,3.23,0,0,0,1.09-1.38,5.53,5.53,0,0,0,.42-2.26,5.18,5.18,0,0,0-.46-2.35,3.18,3.18,0,0,0-1.21-1.34,3.06,3.06,0,0,0-1.56-.43h-5.44Z"/><path class="cls-3" d="M256.84,41.3V35.52h2.72a2.85,2.85,0,0,0,1.66-.42,2.62,2.62,0,0,0,.93-1.36l.34-1L250.93,11.12h7.65l7.06,14.63,6.2-14.63h7.36L267.38,37a7.68,7.68,0,0,1-2.78,3.39,8.23,8.23,0,0,1-4.23.95Z"/><path class="cls-3" d="M279.92,25.91a15.34,15.34,0,0,1,4-10.22,14.66,14.66,0,0,1,4.78-3.48,14.85,14.85,0,0,1,6.34-1.3,14.32,14.32,0,0,1,7.37,1.83,12.13,12.13,0,0,1,4.7,4.76l-5.4,3.78a6,6,0,0,0-1.76-2.53,6.69,6.69,0,0,0-2.47-1.27,10,10,0,0,0-2.61-.37A7.1,7.1,0,0,0,288.93,20a9.66,9.66,0,0,0-1.47,2.94,11.13,11.13,0,0,0-.49,3.18,10.69,10.69,0,0,0,.58,3.49,9.57,9.57,0,0,0,1.61,2.93,7.67,7.67,0,0,0,2.51,2,7.14,7.14,0,0,0,3.29.74,8.79,8.79,0,0,0,2.6-.4A7,7,0,0,0,300,33.56a5.91,5.91,0,0,0,1.72-2.46l5.74,3.4a9.4,9.4,0,0,1-3,3.78,14.94,14.94,0,0,1-4.6,2.4,16.48,16.48,0,0,1-5.09.83,13.44,13.44,0,0,1-6-1.34,15.46,15.46,0,0,1-4.72-3.57,16.61,16.61,0,0,1-3.08-5A15.6,15.6,0,0,1,279.92,25.91Z"/><path class="cls-3" d="M308.73,25.91a15.29,15.29,0,0,1,4-10.22,14.56,14.56,0,0,1,4.78-3.48,14.83,14.83,0,0,1,6.33-1.3,14.32,14.32,0,0,1,7.37,1.83,12.07,12.07,0,0,1,4.7,4.76l-5.4,3.78a6,6,0,0,0-1.76-2.53,6.57,6.57,0,0,0-2.46-1.27,10.16,10.16,0,0,0-2.62-.37,7.3,7.3,0,0,0-3.44.79,7.5,7.5,0,0,0-2.47,2.1,9.41,9.41,0,0,0-1.46,2.94,10.77,10.77,0,0,0,.08,6.67A9.39,9.39,0,0,0,318,32.54a7.57,7.57,0,0,0,2.51,2,7.08,7.08,0,0,0,3.29.74,8.78,8.78,0,0,0,2.59-.4,7,7,0,0,0,2.45-1.34,5.91,5.91,0,0,0,1.72-2.46l5.73,3.4a9.31,9.31,0,0,1-3,3.78,15,15,0,0,1-4.59,2.4,16.49,16.49,0,0,1-5.1.83,13.4,13.4,0,0,1-6-1.34,15.23,15.23,0,0,1-4.72-3.57,16.41,16.41,0,0,1-3.08-5A15.41,15.41,0,0,1,308.73,25.91Z"/><path class="cls-3" d="M339.84,41.3V11.12h6.93V22.77h2.42l8.42-11.65h7.69L354.51,25.74,366.19,41.3h-8.41L349,29.1h-2.21V41.3Z"/><path class="cls-3" d="M381.24,41.51a13.93,13.93,0,0,1-6.06-1.3,15.16,15.16,0,0,1-4.74-3.48,15.7,15.7,0,0,1-4.12-10.61,14.82,14.82,0,0,1,1.13-5.73,16,16,0,0,1,3.14-4.87,14.6,14.6,0,0,1,10.82-4.61,14,14,0,0,1,6.1,1.3,14.65,14.65,0,0,1,4.72,3.5,16.22,16.22,0,0,1,3,4.95,15.33,15.33,0,0,1,1.07,5.59A15,15,0,0,1,395.22,32a15.44,15.44,0,0,1-7.92,8.27A14.5,14.5,0,0,1,381.24,41.51Zm-7.86-15.3a10.71,10.71,0,0,0,.53,3.38,9.2,9.2,0,0,0,1.53,2.91,7.49,7.49,0,0,0,2.46,2,7.4,7.4,0,0,0,3.47.76,7.3,7.3,0,0,0,3.44-.78,7.12,7.12,0,0,0,2.46-2.13,9.6,9.6,0,0,0,1.47-2.95,11.26,11.26,0,0,0,.49-3.32,10.73,10.73,0,0,0-.53-3.35,9.86,9.86,0,0,0-1.53-2.91,6.89,6.89,0,0,0-2.49-2,7.61,7.61,0,0,0-3.36-.73,7.5,7.5,0,0,0-3.48.77A7.11,7.11,0,0,0,375.37,20a10,10,0,0,0-1.48,2.91A11,11,0,0,0,373.38,26.21Z"/><path class="cls-3" d="M421.57,35.18V41.3H400.36V11.12h20.83v6.12H407.34v5.87h11.9v5.65h-11.9v6.42Z"/><path class="cls-3" d="M227.77,85.46V55.28h25.12V85.46h-7V61.4H234.74V85.46Z"/><path class="cls-3" d="M280,79.34v6.12H258.8V55.28h20.82V61.4H265.77v5.87h11.9v5.65h-11.9v6.42Z"/><path class="cls-3" d="M284.25,85.46V55.28h12.88a8.75,8.75,0,0,1,3.95.89,11,11,0,0,1,3.13,2.34,10.46,10.46,0,0,1,2.06,3.27,10.15,10.15,0,0,1,.72,3.74,10.58,10.58,0,0,1-1.21,4.91,10.28,10.28,0,0,1-3.36,3.83,8.75,8.75,0,0,1-5,1.46h-6.17v9.74Zm7-15.86h5.7a2.56,2.56,0,0,0,1.46-.44,3.23,3.23,0,0,0,1.09-1.38,5.53,5.53,0,0,0,.42-2.26,5.22,5.22,0,0,0-.46-2.36,3.25,3.25,0,0,0-1.21-1.34,3.15,3.15,0,0,0-1.56-.42h-5.44Z"/><path class="cls-3" d="M331.94,79.34v6.12H310.73V55.28h20.83V61.4H317.7v5.87h11.9v5.65H317.7v6.42Z"/><path class="cls-3" d="M333.94,70.07a15.29,15.29,0,0,1,4-10.22,14.73,14.73,0,0,1,4.78-3.49A15,15,0,0,1,349,55.07a14.32,14.32,0,0,1,7.37,1.83,12.07,12.07,0,0,1,4.7,4.76l-5.4,3.78a6,6,0,0,0-1.77-2.53,6.6,6.6,0,0,0-2.46-1.28,10,10,0,0,0-2.61-.36,7.35,7.35,0,0,0-3.45.79,7.14,7.14,0,0,0-2.46,2.1,9.66,9.66,0,0,0-1.47,2.94,10.79,10.79,0,0,0-.49,3.18,10.43,10.43,0,0,0,.58,3.49,9.57,9.57,0,0,0,1.61,2.93,7.8,7.8,0,0,0,2.51,2,7.11,7.11,0,0,0,3.29.74,8.84,8.84,0,0,0,2.6-.4A7.15,7.15,0,0,0,354,77.72a5.91,5.91,0,0,0,1.72-2.46l5.74,3.4a9.34,9.34,0,0,1-3,3.78,15,15,0,0,1-4.59,2.4,16.49,16.49,0,0,1-5.1.83,13.4,13.4,0,0,1-6-1.34,15.34,15.34,0,0,1-4.72-3.57,16.34,16.34,0,0,1-3.08-5A15.51,15.51,0,0,1,333.94,70.07Z"/><path class="cls-3" d="M387.91,61.4h-9.18V85.46h-7V61.4h-9.22V55.28h25.37Z"/><path class="cls-3" d="M391.31,85.46V55.28h12.88a8.78,8.78,0,0,1,3.95.89,11.11,11.11,0,0,1,3.13,2.34,10.64,10.64,0,0,1,2.06,3.27,10.15,10.15,0,0,1,.72,3.74,10.58,10.58,0,0,1-1.21,4.91,10.28,10.28,0,0,1-3.36,3.83,8.75,8.75,0,0,1-5,1.46h-6.17v9.74Zm7-15.86H404a2.61,2.61,0,0,0,1.46-.44,3.31,3.31,0,0,0,1.09-1.38,5.53,5.53,0,0,0,.42-2.26,5.08,5.08,0,0,0-.47-2.36,3,3,0,0,0-2.76-1.76h-5.44Z"/><path class="cls-3" d="M423.19,55.28h7.48l10.45,30.18H434l-2-6.76H422l-2.05,6.76h-7.15Zm7.31,18.66L427,62.29l-3.55,11.65Z"/><path class="cls-3" d="M448.48,55.28,455,65.65l6.55-10.37h7.56l-10,15.3,9.65,14.88h-7.56L455,75.51l-6.2,9.95h-7.61l9.64-14.88-10-15.3Z"/><path class="cls-3" d="M484.9,85.67a13.93,13.93,0,0,1-6.06-1.3,14.93,14.93,0,0,1-4.74-3.48A15.79,15.79,0,0,1,471,76,15.55,15.55,0,0,1,470,70.28a14.82,14.82,0,0,1,1.13-5.73,15.77,15.77,0,0,1,3.14-4.87,14.6,14.6,0,0,1,10.82-4.61,14.15,14.15,0,0,1,6.1,1.29,14.78,14.78,0,0,1,4.71,3.51,16,16,0,0,1,3,4.95A15.33,15.33,0,0,1,500,70.41a15,15,0,0,1-1.11,5.74A15.53,15.53,0,0,1,491,84.41,14.28,14.28,0,0,1,484.9,85.67ZM477,70.37a10.72,10.72,0,0,0,.54,3.38,9.2,9.2,0,0,0,1.53,2.91,7.78,7.78,0,0,0,9.37,2,7.23,7.23,0,0,0,2.46-2.13,9.83,9.83,0,0,0,1.47-3,11.6,11.6,0,0,0,.49-3.32,10.73,10.73,0,0,0-.53-3.35A10,10,0,0,0,490.83,64a7,7,0,0,0-2.49-2,8.17,8.17,0,0,0-6.84,0A6.93,6.93,0,0,0,479,64.12,10,10,0,0,0,477.54,67,10.9,10.9,0,0,0,477,70.37Z"/><path class="cls-3" d="M528.93,77.68A6.73,6.73,0,0,1,527.57,82a8.29,8.29,0,0,1-3.7,2.57,14.57,14.57,0,0,1-5.19.88H504V55.28h16.75a6.08,6.08,0,0,1,3.67,1.13,7.28,7.28,0,0,1,2.38,2.91,8.57,8.57,0,0,1,.83,3.7,8.34,8.34,0,0,1-1.08,4A6.58,6.58,0,0,1,523.32,70a7.77,7.77,0,0,1,4.1,2.72A7.93,7.93,0,0,1,528.93,77.68ZM511,61.23v6.25h6.8a3.36,3.36,0,0,0,1.49-.34,2.65,2.65,0,0,0,1.08-1,3.37,3.37,0,0,0,.41-1.74,3.76,3.76,0,0,0-.36-1.75,2.62,2.62,0,0,0-1-1,2.65,2.65,0,0,0-1.4-.36Zm10.88,15.09a3.69,3.69,0,0,0-.38-1.7,3.16,3.16,0,0,0-1-1.21A2.48,2.48,0,0,0,519,73h-8v6.59h7.69a3.14,3.14,0,0,0,1.66-.43A3,3,0,0,0,521.47,78,3.37,3.37,0,0,0,521.87,76.32Z"/><path class="cls-3" d="M546.27,85.67a13.93,13.93,0,0,1-6.06-1.3,15,15,0,0,1-4.74-3.48A15.79,15.79,0,0,1,532.41,76a15.55,15.55,0,0,1-1.06-5.68,14.82,14.82,0,0,1,1.13-5.73,16,16,0,0,1,3.14-4.87,14.6,14.6,0,0,1,10.82-4.61,14.15,14.15,0,0,1,6.1,1.29,14.82,14.82,0,0,1,4.72,3.51,16.18,16.18,0,0,1,3,4.95,15.33,15.33,0,0,1,1.07,5.59,15,15,0,0,1-1.11,5.74A15.49,15.49,0,0,1,557.11,81a15.25,15.25,0,0,1-4.79,3.4A14.28,14.28,0,0,1,546.27,85.67Zm-7.86-15.3a10.71,10.71,0,0,0,.53,3.38,9.2,9.2,0,0,0,1.53,2.91,7.15,7.15,0,0,0,5.93,2.8,7.3,7.3,0,0,0,3.44-.78,7.23,7.23,0,0,0,2.46-2.13,9.6,9.6,0,0,0,1.47-3,11.6,11.6,0,0,0,.49-3.32,10.73,10.73,0,0,0-.53-3.35A10,10,0,0,0,552.2,64a7,7,0,0,0-2.49-2,8.17,8.17,0,0,0-6.84,0,7,7,0,0,0-2.47,2.08A10,10,0,0,0,538.92,67,10.9,10.9,0,0,0,538.41,70.37Z"/><path class="cls-3" d="M582.22,85.46V74.19c-.17.06-.51.2-1,.43a10.38,10.38,0,0,1-2.1.59,17.65,17.65,0,0,1-3.25.26q-5.4,0-8.14-2.4T565,65.35V55.28h6.76v9.31a4.46,4.46,0,0,0,1.25,3.5c.83.76,2.34,1.13,4.53,1.13a11.1,11.1,0,0,0,2.48-.28,11.26,11.26,0,0,0,2.23-.7v-13H589V85.46Z"/><path class="cls-3" d="M620.77,55.28V85.46h-7V73.09h-12V85.46h-7V55.28h7V67h12V55.28Z"/><path class="cls-3" d="M639.73,85.67a13.93,13.93,0,0,1-6.06-1.3,14.93,14.93,0,0,1-4.74-3.48A15.79,15.79,0,0,1,625.87,76a15.55,15.55,0,0,1-1.06-5.68,14.82,14.82,0,0,1,1.12-5.73,16,16,0,0,1,3.15-4.87,14.6,14.6,0,0,1,10.82-4.61A14.11,14.11,0,0,1,646,56.36a14.82,14.82,0,0,1,4.72,3.51,16,16,0,0,1,3,4.95,15.4,15.4,0,0,1,0,11.33A15.52,15.52,0,0,1,650.56,81a15.21,15.21,0,0,1-4.78,3.4A14.31,14.31,0,0,1,639.73,85.67Zm-7.87-15.3a11,11,0,0,0,.53,3.38,9.62,9.62,0,0,0,1.53,2.91,7.53,7.53,0,0,0,2.47,2,8.14,8.14,0,0,0,6.91,0,7.23,7.23,0,0,0,2.46-2.13,9.83,9.83,0,0,0,1.47-3,11.6,11.6,0,0,0,.49-3.32,10.45,10.45,0,0,0-.54-3.35A9.58,9.58,0,0,0,645.65,64a6.85,6.85,0,0,0-2.48-2,8.17,8.17,0,0,0-6.84,0,6.93,6.93,0,0,0-2.47,2.08A10,10,0,0,0,632.37,67,10.9,10.9,0,0,0,631.86,70.37Z"/><path class="cls-3" d="M680.06,79.34v6.12H658.85V55.28h20.83V61.4H665.82v5.87h11.9v5.65h-11.9v6.42Z"/><path class="cls-3" d="M240.82,128.83a13.93,13.93,0,0,1-6.06-1.3,15.16,15.16,0,0,1-4.74-3.48,15.79,15.79,0,0,1-3.06-4.93,15.55,15.55,0,0,1-1.06-5.68A14.91,14.91,0,0,1,227,107.7a16,16,0,0,1,3.14-4.86A14.6,14.6,0,0,1,241,98.23a14.15,14.15,0,0,1,6.1,1.29,14.82,14.82,0,0,1,4.72,3.51,16,16,0,0,1,3,5,15.33,15.33,0,0,1,1.07,5.59,15.08,15.08,0,0,1-1.11,5.74,15.49,15.49,0,0,1-3.14,4.86,15.25,15.25,0,0,1-4.79,3.4A14.28,14.28,0,0,1,240.82,128.83ZM233,113.53a10.71,10.71,0,0,0,.53,3.38,9.2,9.2,0,0,0,1.53,2.91,7.49,7.49,0,0,0,2.46,2,7.4,7.4,0,0,0,3.47.76,7.3,7.3,0,0,0,3.44-.78,7.23,7.23,0,0,0,2.46-2.13,9.71,9.71,0,0,0,1.47-2.95,11.26,11.26,0,0,0,.49-3.32,10.83,10.83,0,0,0-.53-3.36,10.11,10.11,0,0,0-1.53-2.91,7.1,7.1,0,0,0-2.49-2,7.6,7.6,0,0,0-3.36-.72,7.5,7.5,0,0,0-3.48.77,7,7,0,0,0-2.47,2.08,10,10,0,0,0-1.48,2.91A10.9,10.9,0,0,0,233,113.53Z"/><path class="cls-3" d="M260.07,128.61V98.44h22.36v6H267v6h7.48q5.1,0,7.72,2.4a8.37,8.37,0,0,1,2.61,6.48,10,10,0,0,1-1.13,4.87,7.93,7.93,0,0,1-3.33,3.23,11.76,11.76,0,0,1-5.53,1.16Zm7-6h6.8a4.35,4.35,0,0,0,2.28-.51,3.16,3.16,0,0,0,1.21-1.31,3.94,3.94,0,0,0,.38-1.66,4.22,4.22,0,0,0-.32-1.62,2.4,2.4,0,0,0-1.17-1.21,5.24,5.24,0,0,0-2.42-.45H267Z"/><path class="cls-3" d="M323.74,134.39v-5.78H288.59V98.44h7v24h8.12v-24h7v24h8.07v-24h7v24h4.13v11.9Z"/><path class="cls-3" d="M355.23,122.49v6.12H334V98.44h20.83v6.12H341v5.86h11.9v5.66H341v6.41Z"/><path class="cls-3" d="M357.23,113.23a15.29,15.29,0,0,1,4-10.22A14.73,14.73,0,0,1,366,99.52a15,15,0,0,1,6.34-1.29,14.41,14.41,0,0,1,7.37,1.82,12.11,12.11,0,0,1,4.69,4.76L379,108.6a6.06,6.06,0,0,0-1.77-2.53,6.6,6.6,0,0,0-2.46-1.28,10,10,0,0,0-2.62-.36,7.1,7.1,0,0,0-5.9,2.89,9.49,9.49,0,0,0-1.47,2.93,10.85,10.85,0,0,0-.49,3.19,10.43,10.43,0,0,0,.58,3.49,9.57,9.57,0,0,0,1.61,2.93,7.8,7.8,0,0,0,2.51,2,7.24,7.24,0,0,0,3.29.74,8.84,8.84,0,0,0,2.6-.4,7.15,7.15,0,0,0,2.44-1.34,6,6,0,0,0,1.72-2.47l5.74,3.4a9.38,9.38,0,0,1-3,3.79,15,15,0,0,1-4.59,2.4,16.49,16.49,0,0,1-5.1.83,13.4,13.4,0,0,1-6-1.34,15.34,15.34,0,0,1-4.72-3.57,16.34,16.34,0,0,1-3.08-5A15.51,15.51,0,0,1,357.23,113.23Z"/><path class="cls-3" d="M411.2,104.56H402v24.05h-7V104.56h-9.22V98.44H411.2Z"/><path class="cls-3" d="M439.51,120.84a6.75,6.75,0,0,1-1.36,4.33,8.29,8.29,0,0,1-3.7,2.57,14.78,14.78,0,0,1-5.18.87H414.6V98.44h16.75A6.08,6.08,0,0,1,435,99.57a7.28,7.28,0,0,1,2.38,2.91,8.56,8.56,0,0,1,.83,3.69,8.34,8.34,0,0,1-1.08,4.06,6.52,6.52,0,0,1-3.25,2.91,7.83,7.83,0,0,1,4.1,2.72A8,8,0,0,1,439.51,120.84Zm-17.94-16.45v6.25h6.8a3.36,3.36,0,0,0,1.49-.34,2.65,2.65,0,0,0,1.08-1,3.41,3.41,0,0,0,.41-1.75,3.74,3.74,0,0,0-.36-1.74,2.62,2.62,0,0,0-1-1,2.65,2.65,0,0,0-1.4-.36Zm10.88,15.09a3.66,3.66,0,0,0-.38-1.7,3.16,3.16,0,0,0-1-1.21,2.48,2.48,0,0,0-1.51-.45h-8v6.59h7.7a3.12,3.12,0,0,0,1.65-.43,3,3,0,0,0,1.13-1.14A3.37,3.37,0,0,0,432.45,119.48Z"/><path class="cls-3" d="M456.85,128.83a13.93,13.93,0,0,1-6.06-1.3,14.93,14.93,0,0,1-4.74-3.48,15.79,15.79,0,0,1-3.06-4.93,15.55,15.55,0,0,1-1.06-5.68,14.91,14.91,0,0,1,1.13-5.74,15.85,15.85,0,0,1,3.14-4.86A14.6,14.6,0,0,1,457,98.23a14.15,14.15,0,0,1,6.1,1.29,14.78,14.78,0,0,1,4.71,3.51,16,16,0,0,1,3,5,15.33,15.33,0,0,1,1.07,5.59,15.08,15.08,0,0,1-1.11,5.74,15.53,15.53,0,0,1-7.93,8.26A14.28,14.28,0,0,1,456.85,128.83ZM449,113.53a10.72,10.72,0,0,0,.54,3.38,9.2,9.2,0,0,0,1.53,2.91,7.14,7.14,0,0,0,5.92,2.8,7.31,7.31,0,0,0,3.45-.78,7.23,7.23,0,0,0,2.46-2.13,9.94,9.94,0,0,0,1.47-2.95,11.6,11.6,0,0,0,.49-3.32,10.83,10.83,0,0,0-.53-3.36,10.11,10.11,0,0,0-1.53-2.91,7.1,7.1,0,0,0-2.49-2,7.6,7.6,0,0,0-3.36-.72,7.5,7.5,0,0,0-3.48.77,6.93,6.93,0,0,0-2.47,2.08,10,10,0,0,0-1.48,2.91A10.91,10.91,0,0,0,449,113.53Z"/></g></g></svg>