<svg width="269" height="52" fill="none" xmlns="http://www.w3.org/2000/svg"><path d="M31.21 0l6.39 11.02h16.21l8.06 14.17h13.52L60.76 0H31.21z" fill="#160B36"/><path d="M0 0l6.39 11.02H22.6l8.06 14.17h13.52L29.55 0H0z" fill="#B01E23"/><path d="M31.21 26.49l6.39 11.02h16.21l8.06 14.17h13.52L60.76 26.49H31.21z" fill="#160B36"/><path d="M0 26.49l6.39 11.02H22.6l8.06 14.17h13.52L29.55 26.49H0zm86.2-11.75V2.84h3.86a13.77 13.77 0 012.85.16 3.11 3.11 0 011.72 1.17 3.67 3.67 0 01.69 2.31c.017.64-.12 1.274-.4 1.85-.24.461-.582.861-1 1.17a3.551 3.551 0 01-1.25.56 13.1 13.1 0 01-2.49.17h-1.57v4.49l-2.41.02zm2.41-9.88v3.37h1.31a6.43 6.43 0 001.9-.18 1.57 1.57 0 001-1.51 1.58 1.58 0 00-.38-1.08 1.65 1.65 0 00-1-.52 10.68 10.68 0 00-1.72-.08h-1.11zm7.25-2.02h2.69L101.32 9l2.37-6.18h2.51l-4 9a8.713 8.713 0 01-1.34 2.24 2.241 2.241 0 01-1.76.77 7.867 7.867 0 01-1.66-.14V13h.92a1.88 1.88 0 001.2-.31 3 3 0 00.69-1.31l-4.39-8.54zM115 10.37l2.33.73a5.25 5.25 0 01-1.78 2.9 5.621 5.621 0 01-7.06-.68A6.169 6.169 0 01107 8.9a6.543 6.543 0 011.53-4.62 5.266 5.266 0 014-1.64 5 5 0 013.55 1.29 4.707 4.707 0 011.22 2.19l-2.38.57a2.55 2.55 0 00-.88-1.46 2.519 2.519 0 00-1.63-.54 2.731 2.731 0 00-2.15.95c-.622.9-.911 1.99-.82 3.08a5 5 0 00.81 3.21 2.633 2.633 0 002.11 1 2.392 2.392 0 001.65-.61c.53-.528.877-1.21.99-1.95zm12 0l2.33.73a5.25 5.25 0 01-1.78 2.9 5.621 5.621 0 01-7.06-.68A6.209 6.209 0 01119 8.9a6.543 6.543 0 011.53-4.62 5.266 5.266 0 014-1.64 5 5 0 013.55 1.29 4.707 4.707 0 011.22 2.19l-2.38.57a2.473 2.473 0 00-2.51-2 2.71 2.71 0 00-2.14.95 4.664 4.664 0 00-.83 3.08 5 5 0 00.81 3.21 2.648 2.648 0 002.11 1 2.392 2.392 0 001.65-.61c.53-.528.877-1.21.99-1.95zm4.45-7.53h2.4v5.07a1.66 1.66 0 001.09-.42c.366-.58.662-1.2.88-1.85a5.11 5.11 0 011.5-2.4 4.73 4.73 0 012.41-.47h.35v1.77h-.34a2.419 2.419 0 00-1.08.18 1.41 1.41 0 00-.55.56 12.6 12.6 0 00-.63 1.53c-.119.35-.277.685-.47 1-.233.332-.546.6-.91.78a2.472 2.472 0 011.33.92c.443.63.828 1.3 1.15 2l1.62 3.26h-2.82L136 11.66a2.698 2.698 0 01-.14-.25s-.13-.23-.3-.56a3.477 3.477 0 00-.76-1.09 1.58 1.58 0 00-.91-.23v5.21h-2.4l-.04-11.9zm9.62 6.02a7.64 7.64 0 01.54-3 5.62 5.62 0 011.11-1.63 4.616 4.616 0 011.54-1.07 6.569 6.569 0 012.56-.47A5.579 5.579 0 01151 4.27a6.268 6.268 0 011.58 4.54 6.212 6.212 0 01-1.58 4.51 6.27 6.27 0 01-8.41 0 6.155 6.155 0 01-1.52-4.46zm2.47-.08a4.44 4.44 0 00.94 3.07 2.997 2.997 0 002.37 1 3.004 3.004 0 002.35-1 4.49 4.49 0 00.92-3.1 4.463 4.463 0 00-.89-3 2.996 2.996 0 00-2.38-1 3.07 3.07 0 00-2.4 1 4.52 4.52 0 00-.91 3.03zm10.94 5.96V2.84h8.82v2h-6.42v2.65h6v2h-6v3.24h6.65v2l-9.05.01zM86.24 18.7h9.46v11.89h-2.4v-9.9h-4.66v9.9h-2.4V18.7zm11.91 11.89V18.7H107v2h-6.42v2.64h6v2h-6v3.24h6.65v2l-9.08.01zm11.08 0V18.7h3.86a14.02 14.02 0 012.85.17c.685.17 1.291.57 1.72 1.13.484.674.727 1.491.69 2.32a3.945 3.945 0 01-.4 1.84 3.32 3.32 0 01-1 1.17 3.55 3.55 0 01-1.25.56c-.823.136-1.657.193-2.49.17h-1.56v4.49l-2.42.04zm2.41-9.88v3.37H113a6.43 6.43 0 001.9-.18 1.572 1.572 0 001-1.51 1.56 1.56 0 00-.38-1.07 1.671 1.671 0 00-1-.53c-.57-.073-1.145-.1-1.72-.08h-1.16zm8.68 9.88V18.7h8.82v2h-6.42v2.64h6v2h-6v3.24h6.65v2l-9.05.01zM139 26.22l2.33.74a5.21 5.21 0 01-1.78 2.89 5.621 5.621 0 01-7.05-.67 6.198 6.198 0 01-1.5-4.43 6.498 6.498 0 011.53-4.61 5.266 5.266 0 014-1.65 4.931 4.931 0 013.54 1.29 4.633 4.633 0 011.24 2.22l-2.38.57a2.534 2.534 0 00-.88-1.46 2.49 2.49 0 00-1.62-.53 2.683 2.683 0 00-2.15.95 4.62 4.62 0 00-.82 3.07 5 5 0 00.81 3.21 2.63 2.63 0 002.11 1 2.371 2.371 0 001.64-.61 3.497 3.497 0 00.98-1.98zm6.67 4.37v-9.88h-3.53v-2h9.45v2h-3.52v9.88h-2.4zm7.47 0V18.7H157a14.02 14.02 0 012.85.17c.685.17 1.291.57 1.72 1.13.483.674.726 1.491.69 2.32a3.945 3.945 0 01-.4 1.84 3.32 3.32 0 01-1 1.17 3.55 3.55 0 01-1.25.56c-.823.136-1.657.193-2.49.17h-1.57v4.49l-2.41.04zm2.4-9.88v3.37h1.32a6.43 6.43 0 001.9-.18 1.572 1.572 0 001-1.51 1.564 1.564 0 00-.38-1.07 1.671 1.671 0 00-1-.53 10.68 10.68 0 00-1.72-.08h-1.12zm17.96 9.88h-2.62l-1-2.7h-4.75l-1 2.7h-2.55l4.63-11.89h2.54l4.75 11.89zm-4.43-4.7l-1.64-4.42-1.6 4.42h3.24zm4.49 4.7l4.06-6.21-3.68-5.68h2.81l2.39 3.82 2.33-3.82h2.79l-3.71 5.77 4.07 6.12h-2.9l-2.63-4.11-2.65 4.11h-2.88zm11.38-5.87a7.604 7.604 0 01.54-3 5.662 5.662 0 011.11-1.72c.444-.43.967-.77 1.54-1a6.57 6.57 0 012.56-.47 5.622 5.622 0 014.21 1.63 6.268 6.268 0 011.58 4.54 6.27 6.27 0 01-1.57 4.51 5.547 5.547 0 01-4.19 1.62 5.639 5.639 0 01-4.22-1.61 6.178 6.178 0 01-1.56-4.5zm2.47-.08a4.43 4.43 0 00.94 3.06 3 3 0 002.36 1 2.998 2.998 0 002.36-1 4.532 4.532 0 00.93-3.1 4.51 4.51 0 00-.89-3.05 3 3 0 00-2.39-1 3.093 3.093 0 00-2.39 1 4.552 4.552 0 00-.92 3.09zm10.95-5.94h4.75c.705-.018 1.411.02 2.11.11a3.23 3.23 0 011.24.49c.377.258.689.6.91 1 .25.42.378.901.37 1.39a2.83 2.83 0 01-1.67 2.58 3.13 3.13 0 011.67 1.08c.389.515.593 1.145.58 1.79a3.55 3.55 0 01-.37 1.58c-.23.484-.573.906-1 1.23a3.506 3.506 0 01-1.61.56c-.41 0-1.37.07-2.9.08h-4l-.08-11.89zm2.4 2v2.75h3.32a1.65 1.65 0 001-.43 1.242 1.242 0 00.35-.93 1.32 1.32 0 00-.3-.9 1.34 1.34 0 00-.91-.41h-2.05l-1.41-.08zm0 4.73v3.18H203a10.32 10.32 0 001.65-.08 1.4 1.4 0 001.19-1.53 1.572 1.572 0 00-.26-.91 1.408 1.408 0 00-.75-.54 7.911 7.911 0 00-2.13-.17l-1.94.05zm8.69-.71a7.428 7.428 0 01.55-3 5.62 5.62 0 011.1-1.72c.444-.43.967-.77 1.54-1a6.622 6.622 0 012.57-.47 5.6 5.6 0 014.2 1.63 6.268 6.268 0 011.59 4.5 6.216 6.216 0 01-1.57 4.51 5.527 5.527 0 01-4.18 1.62 5.621 5.621 0 01-4.25-1.61 6.135 6.135 0 01-1.55-4.46zm2.48-.08a4.48 4.48 0 00.93 3.06 3.224 3.224 0 003.656.765 3.214 3.214 0 001.074-.765 4.578 4.578 0 00.92-3.11 4.458 4.458 0 00-.9-3.05 3.325 3.325 0 00-2.385-1.006 3.328 3.328 0 00-2.385 1.006 4.497 4.497 0 00-.91 3.1zm10.74-5.94h2.4v2.84c-.017.612.017 1.224.1 1.83a1.297 1.297 0 00.61.78 2.7 2.7 0 001.48.33c.463.01.924-.048 1.37-.17.36-.102.699-.268 1-.49V18.7h2.4v11.89h-2.4V25.8a7.86 7.86 0 01-1.44.49 5.568 5.568 0 01-1.39.17 5 5 0 01-3-.84 3.299 3.299 0 01-1.2-2.91l.07-4.01zm11.88 11.89V18.7H237v4.68h4.71V18.7h2.4v11.89h-2.4v-5.2H237v5.2h-2.45zm11.51-5.87a7.604 7.604 0 01.54-3 5.662 5.662 0 011.11-1.72c.444-.43.967-.77 1.54-1a6.573 6.573 0 012.56-.47 5.616 5.616 0 014.19 1.59 6.268 6.268 0 011.58 4.54 6.212 6.212 0 01-1.58 4.51 5.548 5.548 0 01-4.19 1.62 5.65 5.65 0 01-4.22-1.61 6.17 6.17 0 01-1.53-4.46zm2.47-.08a4.43 4.43 0 00.94 3.06 3.005 3.005 0 002.37 1 3.002 3.002 0 002.35-1 4.528 4.528 0 00.92-3.11 4.459 4.459 0 00-.89-3.05 2.996 2.996 0 00-2.38-1 3.102 3.102 0 00-2.4 1 4.552 4.552 0 00-.91 3.1zm10.94 5.95V18.7h8.82v2h-6.42v2.64h6v2h-6v3.24h6.65v2l-9.05.01zM85.72 40.57a7.598 7.598 0 01.54-3 5.481 5.481 0 011.11-1.63 4.61 4.61 0 011.54-1.07 6.392 6.392 0 012.56-.48A5.59 5.59 0 0195.68 36a6.239 6.239 0 011.58 4.53A6.25 6.25 0 0195.69 45a6.25 6.25 0 01-8.41 0 6.17 6.17 0 01-1.56-4.43zm2.47-.08a4.46 4.46 0 00.93 3.06 2.999 2.999 0 002.37 1 2.998 2.998 0 002.36-1 4.52 4.52 0 00.92-3.1 4.54 4.54 0 00-.89-3.06 3.33 3.33 0 00-4.78 0 4.45 4.45 0 00-.91 3.1zm10.99-5.94h8.89v2h-6.49v2.75h3.21c.75-.022 1.499.09 2.21.33a3.117 3.117 0 011.5 1.2 3.727 3.727 0 010 4.12 3.35 3.35 0 01-1.43 1.18 6.462 6.462 0 01-2.28.31h-5.61V34.55zm2.4 9.9h2.34a7.876 7.876 0 001.57-.11c.312-.074.59-.25.79-.5a1.39 1.39 0 00.34-1 1.321 1.321 0 00-.59-1.2 3.921 3.921 0 00-2-.38h-2.44l-.01 3.19zm9.54-9.9h2.4v9.9H117v-9.9h2.39v9.9h3.56v-9.9h2.39v9.9h1.07V49h-2v-2.6h-13.29V34.55zM128 46.44V34.55h8.82v2h-6.42v2.65h6v2h-6v3.24h6.65v2H128zm18.71-4.37l2.33.74a5.233 5.233 0 01-1.78 2.89 5.6 5.6 0 01-7.06-.7 6.201 6.201 0 01-1.53-4.43 6.5 6.5 0 011.54-4.57 5.224 5.224 0 014-1.65 5 5 0 013.55 1.29 4.69 4.69 0 011.21 2.2l-2.37.56a2.452 2.452 0 00-2.51-2 2.702 2.702 0 00-2.15 1 4.638 4.638 0 00-.82 3.07 4.997 4.997 0 00.81 3.22 2.647 2.647 0 002.11 1 2.43 2.43 0 001.65-.6 3.57 3.57 0 001.02-2.02zm6.65 4.37v-9.88h-3.53v-2h9.46v2h-3.53v9.88h-2.4zm7.48-11.89h4.76a15.37 15.37 0 012.11.11 3.16 3.16 0 011.24.5 3.1 3.1 0 01.91 1 2.8 2.8 0 01-.09 2.93 2.763 2.763 0 01-1.22 1 3.12 3.12 0 011.68 1.08c.386.52.59 1.152.58 1.8a3.512 3.512 0 01-.38 1.57 3.177 3.177 0 01-1 1.23 3.47 3.47 0 01-1.61.56c-.4 0-1.36.07-2.9.08h-4l-.08-11.86zm2.41 2v2.75h3.31a1.54 1.54 0 001-.43 1.226 1.226 0 00.36-.93 1.267 1.267 0 00-.31-.89 1.37 1.37 0 00-.9-.42h-2.06l-1.4-.08zm0 4.73v3.18h2.22c.551.018 1.103-.005 1.65-.07.334-.062.64-.23.87-.48.233-.28.354-.636.34-1a1.571 1.571 0 00-.26-.91 1.488 1.488 0 00-.75-.54 8.41 8.41 0 00-2.14-.17l-1.93-.01zm8.69-.71a7.586 7.586 0 01.54-3 5.463 5.463 0 011.11-1.63 4.616 4.616 0 011.54-1.07 6.388 6.388 0 012.56-.48A5.602 5.602 0 01181.9 36a6.241 6.241 0 011.58 4.53 6.247 6.247 0 01-1.57 4.47 6.251 6.251 0 01-8.41 0 6.17 6.17 0 01-1.56-4.43zm2.47-.08c-.079 1.1.252 2.19.93 3.06a2.995 2.995 0 002.37 1 2.998 2.998 0 002.36-1 4.523 4.523 0 00.92-3.1 4.537 4.537 0 00-.89-3.06 3.324 3.324 0 00-2.39-1.011 3.333 3.333 0 00-2.39 1.011 4.449 4.449 0 00-.91 3.1z" fill="#B01E23"/></svg>