<svg xmlns="http://www.w3.org/2000/svg" viewBox="0 0 680.06 139.5"><defs><style>.cls-1,.cls-2{fill:#b01e23;fill-rule:evenodd}.cls-2{fill:#312258}</style></defs><g id="Layer_2" data-name="Layer 2"><g id="Layer_2-2" data-name="Layer 2"><path class="cls-1" d="M84.25 0H164l39.5 68H167l-21.75-38.25H101.5L84.25 0z"/><path class="cls-2" d="M0 0h79.75l39.5 68h-36.5L61 29.75H17.25L0 0z"/><path class="cls-1" d="M84.25 71.5H164l39.5 68H167l-21.75-38.25H101.5L84.25 71.5z"/><path class="cls-2" d="M0 71.5h79.75l39.5 68h-36.5L61 101.25H17.25L0 71.5z"/><path d="M227.64 41.3V11.12h12.88a8.75 8.75 0 013.95.89 11 11 0 013.13 2.34 10.57 10.57 0 012.06 3.27 10.15 10.15 0 01.72 3.74 10.58 10.58 0 01-1.21 4.91 10.2 10.2 0 01-3.36 3.83 8.68 8.68 0 01-5 1.46h-6.17v9.74zm7-15.86h5.7a2.49 2.49 0 001.46-.44 3.23 3.23 0 001.09-1.38 5.53 5.53 0 00.42-2.26 5.18 5.18 0 00-.46-2.35 3.18 3.18 0 00-1.21-1.34 3.06 3.06 0 00-1.56-.43h-5.44zm22.2 15.86v-5.78h2.72a2.85 2.85 0 001.66-.42 2.62 2.62 0 00.93-1.36l.34-1-11.56-21.62h7.65l7.06 14.63 6.2-14.63h7.36L267.38 37a7.68 7.68 0 01-2.78 3.39 8.23 8.23 0 01-4.23.95zm23.08-15.39a15.34 15.34 0 014-10.22 14.66 14.66 0 014.78-3.48 14.85 14.85 0 016.34-1.3 14.32 14.32 0 017.37 1.83 12.13 12.13 0 014.7 4.76l-5.4 3.78a6 6 0 00-1.76-2.53 6.69 6.69 0 00-2.47-1.27 10 10 0 00-2.61-.37 7.1 7.1 0 00-5.94 2.89 9.66 9.66 0 00-1.47 2.94 11.13 11.13 0 00-.49 3.18 10.69 10.69 0 00.58 3.49 9.57 9.57 0 001.61 2.93 7.67 7.67 0 002.51 2 7.14 7.14 0 003.29.74 8.79 8.79 0 002.6-.4 7 7 0 002.44-1.32 5.91 5.91 0 001.72-2.46l5.74 3.4a9.4 9.4 0 01-3 3.78 14.94 14.94 0 01-4.6 2.4 16.48 16.48 0 01-5.09.83 13.44 13.44 0 01-6-1.34 15.46 15.46 0 01-4.72-3.57 16.61 16.61 0 01-3.08-5 15.6 15.6 0 01-1.05-5.69zm28.81 0a15.29 15.29 0 014-10.22 14.56 14.56 0 014.78-3.48 14.83 14.83 0 016.33-1.3 14.32 14.32 0 017.37 1.83 12.07 12.07 0 014.7 4.76l-5.4 3.78a6 6 0 00-1.76-2.53 6.57 6.57 0 00-2.46-1.27 10.16 10.16 0 00-2.62-.37 7.3 7.3 0 00-3.44.79 7.5 7.5 0 00-2.47 2.1 9.41 9.41 0 00-1.46 2.94 10.77 10.77 0 00.08 6.67 9.39 9.39 0 001.62 2.93 7.57 7.57 0 002.51 2 7.08 7.08 0 003.29.74 8.78 8.78 0 002.59-.4 7 7 0 002.45-1.34 5.91 5.91 0 001.72-2.46l5.73 3.4a9.31 9.31 0 01-3 3.78 15 15 0 01-4.59 2.4 16.49 16.49 0 01-5.1.83 13.4 13.4 0 01-6-1.34 15.23 15.23 0 01-4.72-3.57 16.41 16.41 0 01-3.08-5 15.41 15.41 0 01-1.07-5.67zm31.11 15.39V11.12h6.93v11.65h2.42l8.42-11.65h7.69l-10.79 14.62 11.68 15.56h-8.41L349 29.1h-2.21v12.2zm41.4.21a13.93 13.93 0 01-6.06-1.3 15.16 15.16 0 01-4.74-3.48 15.7 15.7 0 01-4.12-10.61 14.82 14.82 0 011.13-5.73 16 16 0 013.14-4.87 14.6 14.6 0 0110.82-4.61 14 14 0 016.1 1.3 14.65 14.65 0 014.72 3.5 16.22 16.22 0 013 4.95 15.33 15.33 0 011.07 5.59 15 15 0 01-1.08 5.75 15.44 15.44 0 01-7.92 8.27 14.5 14.5 0 01-6.06 1.24zm-7.86-15.3a10.71 10.71 0 00.53 3.38 9.2 9.2 0 001.53 2.91 7.49 7.49 0 002.46 2 7.4 7.4 0 003.47.76 7.3 7.3 0 003.44-.78 7.12 7.12 0 002.46-2.13 9.6 9.6 0 001.47-2.95 11.26 11.26 0 00.49-3.32 10.73 10.73 0 00-.53-3.35 9.86 9.86 0 00-1.53-2.91 6.89 6.89 0 00-2.49-2 7.61 7.61 0 00-3.36-.73 7.5 7.5 0 00-3.48.77 7.11 7.11 0 00-2.47 2.14 10 10 0 00-1.48 2.91 11 11 0 00-.51 3.3zm48.19 8.97v6.12h-21.21V11.12h20.83v6.12h-13.85v5.87h11.9v5.65h-11.9v6.42zm-193.8 50.28V55.28h25.12v30.18h-7V61.4h-11.15v24.06zM280 79.34v6.12h-21.2V55.28h20.82v6.12h-13.85v5.87h11.9v5.65h-11.9v6.42zm4.25 6.12V55.28h12.88a8.75 8.75 0 013.95.89 11 11 0 013.13 2.34 10.46 10.46 0 012.06 3.27 10.15 10.15 0 01.72 3.74 10.58 10.58 0 01-1.21 4.91 10.28 10.28 0 01-3.36 3.83 8.75 8.75 0 01-5 1.46h-6.17v9.74zm7-15.86h5.7a2.56 2.56 0 001.46-.44 3.23 3.23 0 001.09-1.38 5.53 5.53 0 00.42-2.26 5.22 5.22 0 00-.46-2.36 3.25 3.25 0 00-1.21-1.34 3.15 3.15 0 00-1.56-.42h-5.44zm40.69 9.74v6.12h-21.21V55.28h20.83v6.12H317.7v5.87h11.9v5.65h-11.9v6.42zm2-9.27a15.29 15.29 0 014-10.22 14.73 14.73 0 014.78-3.49 15 15 0 016.28-1.29 14.32 14.32 0 017.37 1.83 12.07 12.07 0 014.7 4.76l-5.4 3.78a6 6 0 00-1.77-2.53 6.6 6.6 0 00-2.46-1.28 10 10 0 00-2.61-.36 7.35 7.35 0 00-3.45.79 7.14 7.14 0 00-2.46 2.1 9.66 9.66 0 00-1.47 2.94 10.79 10.79 0 00-.49 3.18 10.43 10.43 0 00.58 3.49 9.57 9.57 0 001.61 2.93 7.8 7.8 0 002.51 2 7.11 7.11 0 003.29.74 8.84 8.84 0 002.6-.4 7.15 7.15 0 002.45-1.32 5.91 5.91 0 001.72-2.46l5.74 3.4a9.34 9.34 0 01-3 3.78 15 15 0 01-4.59 2.4 16.49 16.49 0 01-5.1.83 13.4 13.4 0 01-6-1.34 15.34 15.34 0 01-4.72-3.57 16.34 16.34 0 01-3.08-5 15.51 15.51 0 01-1.03-5.69zm53.97-8.67h-9.18v24.06h-7V61.4h-9.22v-6.12h25.37zm3.4 24.06V55.28h12.88a8.78 8.78 0 013.95.89 11.11 11.11 0 013.13 2.34 10.64 10.64 0 012.06 3.27 10.15 10.15 0 01.72 3.74 10.58 10.58 0 01-1.21 4.91 10.28 10.28 0 01-3.36 3.83 8.75 8.75 0 01-5 1.46h-6.17v9.74zm7-15.86H404a2.61 2.61 0 001.46-.44 3.31 3.31 0 001.09-1.38 5.53 5.53 0 00.42-2.26 5.08 5.08 0 00-.47-2.36 3 3 0 00-2.76-1.76h-5.44zm24.88-14.32h7.48l10.45 30.18H434l-2-6.76h-10l-2.05 6.76h-7.15zm7.31 18.66L427 62.29l-3.55 11.65zm17.98-18.66L455 65.65l6.55-10.37h7.56l-10 15.3 9.65 14.88h-7.56l-6.2-9.95-6.2 9.95h-7.61l9.64-14.88-10-15.3zm36.42 30.39a13.93 13.93 0 01-6.06-1.3 14.93 14.93 0 01-4.74-3.48A15.79 15.79 0 01471 76a15.55 15.55 0 01-1-5.72 14.82 14.82 0 011.13-5.73 15.77 15.77 0 013.14-4.87 14.6 14.6 0 0110.82-4.61 14.15 14.15 0 016.1 1.29 14.78 14.78 0 014.71 3.51 16 16 0 013 4.95 15.33 15.33 0 011.1 5.59 15 15 0 01-1.11 5.74 15.53 15.53 0 01-7.89 8.26 14.28 14.28 0 01-6.1 1.26zm-7.9-15.3a10.72 10.72 0 00.54 3.38 9.2 9.2 0 001.53 2.91 7.78 7.78 0 009.37 2 7.23 7.23 0 002.46-2.13 9.83 9.83 0 001.47-3 11.6 11.6 0 00.49-3.32 10.73 10.73 0 00-.53-3.35 10 10 0 00-1.5-2.86 7 7 0 00-2.49-2 8.17 8.17 0 00-6.84 0 6.93 6.93 0 00-2.5 2.12 10 10 0 00-1.46 2.88 10.9 10.9 0 00-.54 3.37zm51.93 7.31a6.73 6.73 0 01-1.36 4.32 8.29 8.29 0 01-3.7 2.57 14.57 14.57 0 01-5.19.88H504V55.28h16.75a6.08 6.08 0 013.67 1.13 7.28 7.28 0 012.38 2.91 8.57 8.57 0 01.83 3.7 8.34 8.34 0 01-1.08 4 6.58 6.58 0 01-3.23 2.98 7.77 7.77 0 014.1 2.72 7.93 7.93 0 011.51 4.96zM511 61.23v6.25h6.8a3.36 3.36 0 001.49-.34 2.65 2.65 0 001.08-1 3.37 3.37 0 00.41-1.74 3.76 3.76 0 00-.36-1.75 2.62 2.62 0 00-1-1 2.65 2.65 0 00-1.4-.36zm10.88 15.09a3.69 3.69 0 00-.38-1.7 3.16 3.16 0 00-1-1.21A2.48 2.48 0 00519 73h-8v6.59h7.69a3.14 3.14 0 001.66-.43 3 3 0 001.12-1.16 3.37 3.37 0 00.4-1.68zm24.39 9.35a13.93 13.93 0 01-6.06-1.3 15 15 0 01-4.74-3.48 15.79 15.79 0 01-3.06-4.89 15.55 15.55 0 01-1.06-5.68 14.82 14.82 0 011.13-5.73 16 16 0 013.14-4.87 14.6 14.6 0 0110.82-4.61 14.15 14.15 0 016.1 1.29 14.82 14.82 0 014.72 3.51 16.18 16.18 0 013 4.95 15.33 15.33 0 011.07 5.59 15 15 0 01-1.11 5.74 15.49 15.49 0 01-3.11 4.81 15.25 15.25 0 01-4.79 3.4 14.28 14.28 0 01-6.05 1.27zm-7.86-15.3a10.71 10.71 0 00.53 3.38 9.2 9.2 0 001.53 2.91 7.15 7.15 0 005.93 2.8 7.3 7.3 0 003.44-.78 7.23 7.23 0 002.46-2.13 9.6 9.6 0 001.47-3 11.6 11.6 0 00.49-3.32 10.73 10.73 0 00-.53-3.35A10 10 0 00552.2 64a7 7 0 00-2.49-2 8.17 8.17 0 00-6.84 0 7 7 0 00-2.47 2.08 10 10 0 00-1.48 2.92 10.9 10.9 0 00-.51 3.37zm43.81 15.09V74.19c-.17.06-.51.2-1 .43a10.38 10.38 0 01-2.1.59 17.65 17.65 0 01-3.25.26q-5.4 0-8.14-2.4T565 65.35V55.28h6.76v9.31a4.46 4.46 0 001.25 3.5c.83.76 2.34 1.13 4.53 1.13a11.1 11.1 0 002.48-.28 11.26 11.26 0 002.23-.7v-13H589v30.22zm38.55-30.18v30.18h-7V73.09h-12v12.37h-7V55.28h7V67h12V55.28zm18.96 30.39a13.93 13.93 0 01-6.06-1.3 14.93 14.93 0 01-4.74-3.48 15.79 15.79 0 01-3.06-4.89 15.55 15.55 0 01-1.06-5.68 14.82 14.82 0 011.12-5.73 16 16 0 013.15-4.87 14.6 14.6 0 0110.82-4.61 14.11 14.11 0 016.1 1.25 14.82 14.82 0 014.72 3.51 16 16 0 013 4.95 15.4 15.4 0 010 11.33 15.52 15.52 0 01-3.16 4.85 15.21 15.21 0 01-4.78 3.4 14.31 14.31 0 01-6.05 1.27zm-7.87-15.3a11 11 0 00.53 3.38 9.62 9.62 0 001.53 2.91 7.53 7.53 0 002.47 2 8.14 8.14 0 006.91 0 7.23 7.23 0 002.46-2.13 9.83 9.83 0 001.47-3 11.6 11.6 0 00.49-3.32 10.45 10.45 0 00-.54-3.35 9.58 9.58 0 00-1.53-2.86 6.85 6.85 0 00-2.48-2 8.17 8.17 0 00-6.84 0 6.93 6.93 0 00-2.47 2.08 10 10 0 00-1.49 2.92 10.9 10.9 0 00-.51 3.37zm48.2 8.97v6.12h-21.21V55.28h20.83v6.12h-13.86v5.87h11.9v5.65h-11.9v6.42zm-439.24 49.49a13.93 13.93 0 01-6.06-1.3 15.16 15.16 0 01-4.74-3.48 15.79 15.79 0 01-3.06-4.93 15.55 15.55 0 01-1.06-5.68 14.91 14.91 0 011.1-5.74 16 16 0 013.14-4.86A14.6 14.6 0 01241 98.23a14.15 14.15 0 016.1 1.29 14.82 14.82 0 014.72 3.51 16 16 0 013 5 15.33 15.33 0 011.07 5.59 15.08 15.08 0 01-1.11 5.74 15.49 15.49 0 01-3.14 4.86 15.25 15.25 0 01-4.79 3.4 14.28 14.28 0 01-6.03 1.21zm-7.82-15.3a10.71 10.71 0 00.53 3.38 9.2 9.2 0 001.53 2.91 7.49 7.49 0 002.46 2 7.4 7.4 0 003.47.76 7.3 7.3 0 003.44-.78 7.23 7.23 0 002.46-2.13 9.71 9.71 0 001.47-2.95 11.26 11.26 0 00.49-3.32 10.83 10.83 0 00-.53-3.36 10.11 10.11 0 00-1.53-2.91 7.1 7.1 0 00-2.49-2 7.6 7.6 0 00-3.36-.72 7.5 7.5 0 00-3.48.77 7 7 0 00-2.47 2.08 10 10 0 00-1.48 2.91 10.9 10.9 0 00-.51 3.36zm27.07 15.08V98.44h22.36v6H267v6h7.48q5.1 0 7.72 2.4a8.37 8.37 0 012.61 6.48 10 10 0 01-1.13 4.87 7.93 7.93 0 01-3.33 3.23 11.76 11.76 0 01-5.53 1.16zm7-6h6.8a4.35 4.35 0 002.28-.51 3.16 3.16 0 001.21-1.31 3.94 3.94 0 00.38-1.66 4.22 4.22 0 00-.32-1.62 2.4 2.4 0 00-1.17-1.21 5.24 5.24 0 00-2.42-.45H267zm56.67 11.78v-5.78h-35.15V98.44h7v24h8.12v-24h7v24h8.07v-24h7v24h4.13v11.9zm31.49-11.9v6.12H334V98.44h20.83v6.12H341v5.86h11.9v5.66H341v6.41zm2-9.26a15.29 15.29 0 014-10.22 14.73 14.73 0 014.77-3.49 15 15 0 016.34-1.29 14.41 14.41 0 017.37 1.82 12.11 12.11 0 014.69 4.76l-5.4 3.79a6.06 6.06 0 00-1.77-2.53 6.6 6.6 0 00-2.46-1.28 10 10 0 00-2.62-.36 7.1 7.1 0 00-5.9 2.89 9.49 9.49 0 00-1.47 2.93 10.85 10.85 0 00-.49 3.19 10.43 10.43 0 00.58 3.49 9.57 9.57 0 001.61 2.93 7.8 7.8 0 002.51 2 7.24 7.24 0 003.29.74 8.84 8.84 0 002.6-.4 7.15 7.15 0 002.44-1.34 6 6 0 001.72-2.47l5.74 3.4a9.38 9.38 0 01-3 3.79 15 15 0 01-4.59 2.4 16.49 16.49 0 01-5.1.83 13.4 13.4 0 01-6-1.34 15.34 15.34 0 01-4.72-3.57 16.34 16.34 0 01-3.08-5 15.51 15.51 0 01-1.06-5.67zm53.97-8.67H402v24.05h-7v-24.05h-9.22v-6.12h25.42zm28.31 16.28a6.75 6.75 0 01-1.36 4.33 8.29 8.29 0 01-3.7 2.57 14.78 14.78 0 01-5.18.87H414.6V98.44h16.75a6.08 6.08 0 013.65 1.13 7.28 7.28 0 012.38 2.91 8.56 8.56 0 01.83 3.69 8.34 8.34 0 01-1.08 4.06 6.52 6.52 0 01-3.25 2.91 7.83 7.83 0 014.1 2.72 8 8 0 011.53 4.98zm-17.94-16.45v6.25h6.8a3.36 3.36 0 001.49-.34 2.65 2.65 0 001.08-1 3.41 3.41 0 00.41-1.75 3.74 3.74 0 00-.36-1.74 2.62 2.62 0 00-1-1 2.65 2.65 0 00-1.4-.36zm10.88 15.09a3.66 3.66 0 00-.38-1.7 3.16 3.16 0 00-1-1.21 2.48 2.48 0 00-1.51-.45h-8v6.59h7.7a3.12 3.12 0 001.65-.43 3 3 0 001.13-1.14 3.37 3.37 0 00.41-1.66zm24.4 9.35a13.93 13.93 0 01-6.06-1.3 14.93 14.93 0 01-4.74-3.48 15.79 15.79 0 01-3.06-4.93 15.55 15.55 0 01-1.06-5.68 14.91 14.91 0 011.13-5.74 15.85 15.85 0 013.14-4.86 14.6 14.6 0 0110.8-4.61 14.15 14.15 0 016.1 1.29 14.78 14.78 0 014.71 3.51 16 16 0 013 5 15.33 15.33 0 011.07 5.59 15.08 15.08 0 01-1.11 5.74 15.53 15.53 0 01-7.93 8.26 14.28 14.28 0 01-5.99 1.21zm-7.85-15.3a10.72 10.72 0 00.54 3.38 9.2 9.2 0 001.53 2.91 7.14 7.14 0 005.92 2.8 7.31 7.31 0 003.45-.78 7.23 7.23 0 002.46-2.13 9.94 9.94 0 001.47-2.95 11.6 11.6 0 00.49-3.32 10.83 10.83 0 00-.53-3.36 10.11 10.11 0 00-1.53-2.91 7.1 7.1 0 00-2.49-2 7.6 7.6 0 00-3.36-.72 7.5 7.5 0 00-3.48.77 6.93 6.93 0 00-2.47 2.08 10 10 0 00-1.48 2.91 10.91 10.91 0 00-.52 3.32z" fill="#b01e23"/></g></g></svg>